# xmcd CD database file
#
# Track frame offsets:
#	150
#	18967
#	39526
#	59726
#	88787
#	103005
#	123799
#	146593
#	169374
#	192733
#	220344
#	253317
#
# Disc length: 3851 seconds
#
# Revision: 0
# Processed by: cddbd v1.5.2PL0 Copyright (c) Steve Scherf et al.
# Submitted via: CDex 1.51
#
DISCID=b90f090c
DTITLE=John Lee Hooker - I Feel Good
DYEAR=1969
DGENRE=Blues
TTITLE0=I Feel Good
TTITLE1=Baby Baby
TTITLE2=Dazie Mae
TTITLE3=Stand By
TTITLE4=Going Home
TTITLE5=Looking Back Over My Day
TTITLE6=Roll And Tumble
TTITLE7=Baby Don't Do Me Wrong
TTITLE8=Come On Baby
TTITLE9=Reconsideration Blues
TTITLE10=Never Get Out Of These Blues Alive
TTITLE11=T.B. Sheets
EXTD=YEAR: 1969
EXTT0=
EXTT1=
EXTT2=
EXTT3=
EXTT4=
EXTT5=
EXTT6=
EXTT7=
EXTT8=
EXTT9=
EXTT10=
EXTT11=
PLAYORDER=
